<svg xmlns="http://www.w3.org/2000/svg" xmlns:xlink="http://www.w3.org/1999/xlink" viewBox="0 0 1567.075 959.571"><defs><linearGradient id="a"><stop offset="0" stop-color="#08a"/><stop offset="1" stop-color="#08a" stop-opacity="0"/></linearGradient><radialGradient id="b" cx="-1017.143" cy="1496.648" r="157.143" fx="-1017.143" fy="1496.648" gradientTransform="translate(1508.426 -947.523) scale(1.16818)" gradientUnits="userSpaceOnUse" xlink:href="#a"/></defs><g transform="translate(1048.428 -35.22)"><path d="M-1048.428 35.219H514.95v957.173h-1563.378z"/><circle cx="-590" cy="493.791" r="272.857" fill="none" stroke="#71c837" stroke-linecap="round" stroke-linejoin="round" stroke-width="4"/><circle cx="-589.99" cy="494.575" r="264.835" fill="none" stroke="#71c837" stroke-linecap="round" stroke-linejoin="round" stroke-width="3"/><circle cx="-589.929" cy="494.717" r="256.812" fill="none" stroke="#71c837" stroke-linecap="round" stroke-linejoin="round" stroke-width="2"/><circle cx="-606.091" cy="482.636" r="226.728" fill="none" stroke="#71c837" stroke-linecap="round" stroke-linejoin="round"/><circle cx="-635.386" cy="459.403" r="177.591" fill="none" stroke="#71c837" stroke-linecap="round" stroke-linejoin="round" stroke-width=".5"/><path fill="#0f0" fill-rule="evenodd" stroke="red" stroke-dasharray="12 12" d="M-465.217 183.275l307.683 647.784"/><path fill="#fc0" d="M-382.055 328.577A107.187 713.441 65.918 0 0-949.602 706.07a107.187 713.441 65.918 0 0 728.157-214.837 107.187 713.441 65.918 0 0 567.546-377.492 107.187 713.441 65.918 0 0-728.156 214.836zm-32.463 21.19a99.62 663.077 65.918 0 1 676.754-199.671A99.62 663.077 65.918 0 1-265.246 500.94a99.62 663.077 65.918 0 1-676.753 199.67 99.62 663.077 65.918 0 1 527.481-350.843z"/><path fill="#0f0" fill-rule="evenodd" stroke="#0f0" stroke-dasharray="12 12" d="M-485.958 212.123L-868.45 818.748"/><circle cx="-27.143" cy="402.362" r="74.159" fill="none" stroke="#0ff" stroke-linecap="round" stroke-linejoin="round"/><path fill="none" stroke="#0ff" stroke-dasharray="24 24" d="M-91.429 513.79L32.214 299.636"/><path fill="none" d="M-105.703 321.586H49.489v162.335h-155.192z" opacity=".5"/><path fill="none" stroke="#fff" d="M-1048.417 122.714H518.648M-1048.417 220.05H518.648M-1048.417 317.384H518.648M-1048.417 414.72H518.648M-1048.417 512.054H-1.352M-1048.417 609.389H23.673M-1048.417 706.724H48.421M-1048.417 804.059H74.686M-1048.417 901.394H99.392"/><g fill="none" stroke="#fff"><path d="M-167.673 36.465v954.738M-265.008 36.465v954.738M-362.343 36.465v956.167M-459.678 36.465v954.738M-557.013 36.465v954.738M-654.347 36.465v954.738M-751.682 36.465v954.738M-849.017 36.465v954.738M-946.352 36.465v954.738"/></g><path fill="none" stroke="#fff" d="M417.05 37.136v533.738M319.714 37.136v498.023M222.38 37.136V498.73M125.044 37.136v426.271M27.71 37.136v390.176m0 196.24v368.322M-69.625 37.136v954.738"/><circle cx="320.218" cy="800.834" r="183.571" fill="url(#b)"/><circle cx="324.076" cy="805.263" r="140" fill="#ffd42a"/><path fill="none" stroke="#71c837" stroke-linecap="round" stroke-linejoin="round" stroke-width="2" d="M122.857 606.648h391.429v387.143H122.857z"/><path fill="none" stroke="#71c837" d="M-27.143 406.648l149.119 586.368M125.259 609.663L-27.274 406.875l541.56 200.13"/><path stroke="#71c837" stroke-linecap="round" stroke-linejoin="round" stroke-width="2" d="M-85.714 655.219h248.571v124.286H-85.714z"/><path fill="#71c837" d="M-74.286 674.505h18.571v7.143h-18.571zM-48.857 674.505h46.429v7.143h-46.429zM6.429 674.505h4.643v7.143H6.429zM20.714 674.505h68.214v7.143H20.714zM-12.857 688.076h46.429v7.143h-46.429zM-75 688.076h46.429v7.143H-75zM43.929 688.076h46.429v7.143H43.929z"/><text x="-1045.417" y="988.56" style="line-height:125%;-inkscape-font-specification:'GOST Common'" fill="#fff" font-family="GOST Common" font-size="40" font-weight="400" letter-spacing="0" word-spacing="0"><tspan style="-inkscape-font-specification:Gost" x="-1045.417" y="988.56" font-family="Gost" font-size="10">100</tspan></text><text x="-1045.417" y="896.002" style="line-height:125%;-inkscape-font-specification:'GOST Common'" fill="#fff" font-family="GOST Common" font-size="40" font-weight="400" letter-spacing="0" word-spacing="0"><tspan style="-inkscape-font-specification:Gost" x="-1045.417" y="896.002" font-family="Gost" font-size="10">140</tspan></text><text x="-1045.417" y="801.679" style="line-height:125%;-inkscape-font-specification:'GOST Common'" fill="#fff" font-family="GOST Common" font-size="40" font-weight="400" letter-spacing="0" word-spacing="0"><tspan style="-inkscape-font-specification:Gost" x="-1045.417" y="801.679" font-family="Gost" font-size="10">160</tspan></text><text x="-1045.417" y="703.066" style="line-height:125%;-inkscape-font-specification:'GOST Common'" fill="#fff" font-family="GOST Common" font-size="40" font-weight="400" letter-spacing="0" word-spacing="0"><tspan style="-inkscape-font-specification:Gost" x="-1045.417" y="703.066" font-family="Gost" font-size="10">180</tspan></text><text x="-1045.051" y="604.464" style="line-height:125%;-inkscape-font-specification:'GOST Common'" fill="#fff" font-family="GOST Common" font-size="40" font-weight="400" letter-spacing="0" word-spacing="0"><tspan style="-inkscape-font-specification:Gost" x="-1045.051" y="604.464" font-family="Gost" font-size="10">200</tspan></text><text x="-1045.051" y="509.005" style="line-height:125%;-inkscape-font-specification:'GOST Common'" fill="#fff" font-family="GOST Common" font-size="40" font-weight="400" letter-spacing="0" word-spacing="0"><tspan style="-inkscape-font-specification:Gost" x="-1045.051" y="509.005" font-family="Gost" font-size="10">220</tspan></text><text x="-1045.051" y="408.747" style="line-height:125%;-inkscape-font-specification:'GOST Common'" fill="#fff" font-family="GOST Common" font-size="40" font-weight="400" letter-spacing="0" word-spacing="0"><tspan style="-inkscape-font-specification:Gost" x="-1045.051" y="408.747" font-family="Gost" font-size="10">240</tspan></text><text x="-1045.051" y="314.55" style="line-height:125%;-inkscape-font-specification:'GOST Common'" fill="#fff" font-family="GOST Common" font-size="40" font-weight="400" letter-spacing="0" word-spacing="0"><tspan style="-inkscape-font-specification:Gost" x="-1045.051" y="314.55" font-family="Gost" font-size="10">260</tspan></text><text x="-1045.051" y="216.06" style="line-height:125%;-inkscape-font-specification:'GOST Common'" fill="#fff" font-family="GOST Common" font-size="40" font-weight="400" letter-spacing="0" word-spacing="0"><tspan style="-inkscape-font-specification:Gost" x="-1045.051" y="216.06" font-family="Gost" font-size="10">280</tspan></text><text x="-1045.08" y="119.086" style="line-height:125%;-inkscape-font-specification:'GOST Common'" fill="#fff" font-family="GOST Common" font-size="40" font-weight="400" letter-spacing="0" word-spacing="0"><tspan style="-inkscape-font-specification:Gost" x="-1045.08" y="119.086" font-family="Gost" font-size="10">300</tspan></text><g fill="#fff" font-family="GOST Common" font-size="40" font-weight="400" letter-spacing="0" word-spacing="0"><text style="line-height:125%;-inkscape-font-specification:'GOST Common'" x="-941.377" y="559.311" transform="translate(1432.857 429.286)"><tspan x="-941.377" y="559.311" style="-inkscape-font-specification:Gost" font-family="Gost" font-size="10">100</tspan></text><text style="line-height:125%;-inkscape-font-specification:'GOST Common'" x="-941.377" y="466.753" transform="translate(1432.857 429.286)"><tspan x="-941.377" y="466.753" style="-inkscape-font-specification:Gost" font-family="Gost" font-size="10">140</tspan></text><text style="line-height:125%;-inkscape-font-specification:'GOST Common'" x="-941.377" y="372.429" transform="translate(1432.857 429.286)"><tspan x="-941.377" y="372.429" style="-inkscape-font-specification:Gost" font-family="Gost" font-size="10">160</tspan></text><text style="line-height:125%;-inkscape-font-specification:'GOST Common'" x="-941.377" y="273.817" transform="translate(1432.857 429.286)"><tspan x="-941.377" y="273.817" style="-inkscape-font-specification:Gost" font-family="Gost" font-size="10">180</tspan></text><text style="line-height:125%;-inkscape-font-specification:'GOST Common'" x="-941.011" y="175.215" transform="translate(1432.857 429.286)"><tspan x="-941.011" y="175.215" style="-inkscape-font-specification:Gost" font-family="Gost" font-size="10">200</tspan></text><text style="line-height:125%;-inkscape-font-specification:'GOST Common'" x="-941.011" y="79.756" transform="translate(1432.857 429.286)"><tspan x="-941.011" y="79.756" style="-inkscape-font-specification:Gost" font-family="Gost" font-size="10">220</tspan></text><text style="line-height:125%;-inkscape-font-specification:'GOST Common'" x="-941.011" y="-20.502" transform="translate(1432.857 429.286)"><tspan x="-941.011" y="-20.502" style="-inkscape-font-specification:Gost" font-family="Gost" font-size="10">240</tspan></text><text style="line-height:125%;-inkscape-font-specification:'GOST Common'" x="-941.011" y="-114.699" transform="translate(1432.857 429.286)"><tspan x="-941.011" y="-114.699" style="-inkscape-font-specification:Gost" font-family="Gost" font-size="10">260</tspan></text><text style="line-height:125%;-inkscape-font-specification:'GOST Common'" x="-941.011" y="-213.189" transform="translate(1432.857 429.286)"><tspan x="-941.011" y="-213.189" style="-inkscape-font-specification:Gost" font-family="Gost" font-size="10">280</tspan></text><text style="line-height:125%;-inkscape-font-specification:'GOST Common'" x="-941.04" y="-310.163" transform="translate(1432.857 429.286)"><tspan x="-941.04" y="-310.163" style="-inkscape-font-specification:Gost" font-family="Gost" font-size="10">300</tspan></text></g></g></svg>